<svg xmlns="http://www.w3.org/2000/svg" viewBox="0 0 128 128" role="img" aria-label="Office">
  <rect width="128" height="128" rx="33.9" fill="#f4f4f5"/>
  <path fill="#0a0a0a" d="M31.02 71.49Q26.76 71.49 24.16 70.74Q21.56 69.99 20.38 68.51Q19.2 67.04 19.2 64.85Q19.2 62.66 20.38 61.19Q21.56 59.71 24.16 58.96Q26.76 58.21 31.02 58.21Q35.28 58.21 37.88 58.96Q40.48 59.71 41.66 61.19Q42.85 62.66 42.85 64.85Q42.85 67.04 41.66 68.51Q40.48 69.99 37.88 70.74Q35.28 71.49 31.02 71.49ZM31.02 67.78Q33.04 67.78 34.5 67.54Q35.97 67.29 36.77 66.66Q37.57 66.02 37.57 64.85Q37.57 63.68 36.77 63.04Q35.97 62.41 34.5 62.16Q33.04 61.92 31.02 61.92Q29.01 61.92 27.5 62.16Q25.98 62.41 25.13 63.04Q24.28 63.68 24.28 64.85Q24.28 66.02 25.13 66.66Q25.98 67.29 27.5 67.54Q29.01 67.78 31.02 67.78Z"/>
  <path fill="#0a0a0a" d="M43.04 62.11H55.43V65.05H43.04ZM50.92 57.62H55.43V60.75H52.87Q52.09 60.73 51.67 60.82Q51.25 60.92 51.08 61.22Q50.92 61.51 50.92 62.11V71.1H46.23V61.14Q46.23 59.96 46.67 59.18Q47.11 58.4 48.13 58.01Q49.16 57.62 50.92 57.62Z"/>
  <path fill="#0a0a0a" d="M54.84 62.11H67.23V65.05H54.84ZM62.72 57.62H67.23V60.75H64.67Q63.89 60.73 63.47 60.82Q63.05 60.92 62.89 61.22Q62.72 61.51 62.72 62.11V71.1H58.03V61.14Q58.03 59.96 58.47 59.18Q58.91 58.4 59.93 58.01Q60.96 57.62 62.72 57.62Z"/>
  <path fill="#0a0a0a" d="M72.29 56.51V59.44H67.33V56.51ZM67.47 61.53H72.16V71.1H67.47Z"/>
  <path fill="#0a0a0a" d="M90.74 66.94Q90.74 68.35 89.86 69.34Q88.98 70.34 87.09 70.87Q85.19 71.4 82.16 71.4Q79.13 71.4 77.01 70.91Q74.89 70.42 73.79 69.31Q72.69 68.19 72.69 66.34Q72.69 64.48 73.79 63.36Q74.89 62.23 77.01 61.73Q79.13 61.23 82.16 61.23Q85.19 61.23 87.07 61.76Q88.94 62.29 89.82 63.29Q90.7 64.28 90.72 65.67H86.42Q86.11 64.91 85.02 64.49Q83.92 64.07 82.16 64.07Q80.74 64.07 79.68 64.27Q78.63 64.48 78.05 64.97Q77.47 65.46 77.47 66.34Q77.47 67.2 78.04 67.68Q78.61 68.17 79.66 68.37Q80.72 68.56 82.16 68.56Q83.92 68.56 85.03 68.14Q86.13 67.72 86.44 66.94Z"/>
  <path fill="#0a0a0a" d="M104.15 67.66H108.76Q108.58 68.8 107.64 69.64Q106.69 70.48 104.88 70.94Q103.07 71.4 100.28 71.4Q97.33 71.4 95.19 70.93Q93.05 70.46 91.89 69.34Q90.74 68.23 90.74 66.34Q90.74 64.46 91.87 63.34Q92.99 62.21 95.12 61.72Q97.25 61.23 100.28 61.23Q103.25 61.23 105.14 61.76Q107.04 62.29 107.94 63.47Q108.84 64.65 108.8 66.67H95.51Q95.61 67.18 96.07 67.61Q96.53 68.04 97.49 68.3Q98.46 68.56 100.08 68.56Q101.76 68.56 102.85 68.33Q103.93 68.09 104.15 67.66ZM100.08 64.07Q98.01 64.07 96.93 64.52Q95.84 64.97 95.65 65.42H104.25Q104.11 64.91 103.15 64.49Q102.19 64.07 100.08 64.07Z"/>
</svg>
